# xmcd
#
# Track frame offsets:
#	150
#	15036
#	37440
#	52191
#	71360
#	92761
#	115990
#	139301
#	160100
#	181185
#	209294
#	222897
#	240773
#	265289
#	285328
#	309282
#	325027
#
# Disc length: 4609 seconds
#
# Revision: 1
# Processed by: cddbd v1.5.2PL0 Copyright (c) Steve Scherf et al.
# Submitted via: audiograbber 1.83.01
#
DISCID=e711ff11
DTITLE=Eric Clapton - Complete Clapton  CD 2
DYEAR=2007
DGENRE=Blues
TTITLE0=I've got a rock 'n' roll heart
TTITLE1=She's waiting
TTITLE2=Forever man 
TTITLE3=It's in the way that you use it 
TTITLE4=Miss you
TTITLE5=Pretending
TTITLE6=Bad love 
TTITLE7=Tears in heaven 
TTITLE8=Layla (Unplugged Version)
TTITLE9=Running on faith (Unplugged Version) 
TTITLE10=Motherless child 
TTITLE11=Change the world
TTITLE12=My father's eyes
TTITLE13=Riding with the king
TTITLE14=Sweet home Chicago 
TTITLE15=If I had possession over judgement day
TTITLE16=Ride the river 
EXTD=
EXTT0=
EXTT1=
EXTT2=
EXTT3=
EXTT4=
EXTT5=
EXTT6=
EXTT7=
EXTT8=
EXTT9=
EXTT10=
EXTT11=
EXTT12=
EXTT13=
EXTT14=
EXTT15=
EXTT16=
PLAYORDER=
